<svg width="50" height="67" viewBox="0 0 50 67" fill="none" xmlns="http://www.w3.org/2000/svg">
<path d="M45.5627 35.2877L44.6076 34.6924L28.1394 44.946C26.1932 46.1575 23.8033 46.1575 21.8576 44.946L5.39068 34.6924L4.43541 35.2877C2.76636 36.3307 2.7575 38.9593 4.43541 39.9966L21.859 50.8417C23.805 52.0533 26.1951 52.0533 28.1408 50.8417L45.5646 39.9966C47.2423 38.9593 47.2335 36.3287 45.5646 35.2877H45.5627Z" fill="#1E1E1E" fill-opacity="0.9"/>
<path d="M45.5626 27.401L44.6128 26.8096H44.6075L28.1393 37.0631C26.1933 38.2747 23.8033 38.2747 21.8575 37.0631L5.39064 26.8096H5.38531L4.43541 27.401C2.76636 28.4478 2.7575 31.0787 4.43541 32.1157L5.39068 32.7071L21.8588 42.9604C23.8049 44.1722 26.1948 44.1722 28.1406 42.9604L44.6088 32.7071L45.5641 32.1157C47.2421 31.0787 47.2332 28.4478 45.5641 27.401H45.5626Z" fill="#1EDD88"/>
<path d="M4.43709 24.2353L5.387 24.8267H5.39233L21.8604 35.0801C23.8066 36.2919 26.1965 36.2919 28.1422 35.0801L44.6104 24.8267H44.6158L45.5658 24.2353C47.2384 23.1981 47.2384 20.5635 45.5658 19.5263L28.1349 8.71054C26.1887 7.50469 23.8079 7.50469 21.8617 8.71054L4.43621 19.5243C2.76361 20.5615 2.76361 23.1962 4.43621 24.2334L4.43709 24.2353Z" fill="#1E1E1E" fill-opacity="0.9"/>
</svg>
