<svg width="28" height="36" viewBox="0 0 28 36" fill="none" xmlns="http://www.w3.org/2000/svg">
<path d="M25.5151 18.9604L24.9802 18.6406L15.758 24.15C14.6682 24.801 13.3299 24.801 12.2402 24.15L3.01876 18.6406L2.48381 18.9604C1.54914 19.5208 1.54418 20.9333 2.48381 21.4906L12.241 27.3178C13.3308 27.9689 14.6692 27.9689 15.7589 27.3178L25.5161 21.4906C26.4557 20.9333 26.4508 19.5198 25.5161 18.9604H25.5151Z" fill="#FFF56B" fill-opacity="0.89"/>
<path d="M25.5152 14.723L24.9832 14.4053H24.9802L15.758 19.9146C14.6683 20.5656 13.3299 20.5656 12.2402 19.9146L3.0188 14.4053H3.01582L2.48387 14.723C1.5492 15.2855 1.54424 16.699 2.48387 17.2563L3.01882 17.574L12.241 23.0834C13.3308 23.7344 14.6691 23.7344 15.7588 23.0834L24.981 17.574L25.516 17.2563C26.4556 16.699 26.4506 15.2855 25.516 14.723H25.5152Z" fill="#FFF56B" fill-opacity="0.89"/>
<path d="M25.5168 10.4917L15.7555 4.68028C14.6658 4.03236 13.3324 4.03236 12.2425 4.68028L2.48429 10.4907C1.54764 11.048 1.54764 12.4636 2.48429 13.0209L25.5168 10.4917ZM25.5168 10.4917C26.4535 11.049 26.4535 12.4647 25.5168 13.022V10.4917ZM12.7538 5.53972C13.5286 5.07916 14.4698 5.07922 15.2445 5.53983L25.0053 11.351L25.0055 11.3511C25.1354 11.4284 25.2193 11.5729 25.2193 11.7569C25.2193 11.9408 25.1354 12.0853 25.0055 12.1626L25.0041 12.1634L24.709 12.3397H24.7059L24.469 12.4812L15.2469 17.9905L15.2468 17.9905C14.473 18.4528 13.5287 18.4529 12.7548 17.9905L12.7548 17.9905L3.53257 12.4812L3.29567 12.3397H3.29263L3.2606 12.3205L3.25972 12.3186L2.99562 12.1615C2.86576 12.0842 2.7818 11.9397 2.7818 11.7558C2.7818 11.5718 2.86575 11.4273 2.9956 11.3501L2.9959 11.3499L12.7536 5.53984C12.7536 5.5398 12.7537 5.53976 12.7538 5.53972Z" stroke="#FFF56B" stroke-opacity="0.89" stroke-width="2"/>
</svg>